<svg width="24" height="22" viewBox="0 0 24 22" fill="none" xmlns="http://www.w3.org/2000/svg">
<path d="M12 0.270012C9.37473 0.251719 6.82947 1.17298 4.82408 2.86735C2.8187 4.56173 1.48545 6.91747 1.0652 9.50896C0.644962 12.1005 1.16544 14.7568 2.53261 16.9981C3.89978 19.2394 6.02348 20.9177 8.52001 21.73C9.07001 21.82 9.25001 21.45 9.25001 21.18V19.34C6.22001 19.98 5.58001 17.88 5.58001 17.88C5.03001 16.59 4.30001 16.23 4.30001 16.23C3.38001 15.58 4.40001 15.58 4.40001 15.58C5.50001 15.58 6.13001 16.68 6.13001 16.68C7.05001 18.33 8.70001 17.88 9.34001 17.6C9.33952 17.3241 9.39612 17.0511 9.50626 16.7981C9.61641 16.5451 9.7777 16.3176 9.98001 16.13C7.51001 15.86 4.94001 14.94 4.94001 10.63C4.94001 9.53001 5.40001 8.53001 6.14001 7.79001C5.94391 7.32649 5.84287 6.82831 5.84287 6.32501C5.84287 5.82171 5.94391 5.32354 6.14001 4.86001C6.14001 4.86001 7.05001 4.58001 9.25001 5.96001C11.05 5.47001 12.95 5.47001 14.75 5.96001C16.85 4.58001 17.77 4.86001 17.77 4.86001C17.9661 5.32354 18.0672 5.82171 18.0672 6.32501C18.0672 6.82831 17.9661 7.32649 17.77 7.79001C18.6 8.53001 18.97 9.53001 18.97 10.73C18.97 14.94 16.4 15.86 13.93 16.13C14.38 16.5 14.75 17.05 14.75 18.15V21.18C14.75 21.45 14.85 21.82 15.48 21.73C17.9765 20.9177 20.1002 19.2394 21.4674 16.9981C22.8346 14.7568 23.3551 12.1005 22.9348 9.50896C22.5146 6.91747 21.1813 4.56173 19.1759 2.86735C17.1706 1.17298 14.6253 0.251719 12 0.270012" fill="white" fill-opacity="0.4"/>
</svg>
