<svg width="28" height="24" viewBox="0 0 28 24" fill="none" xmlns="http://www.w3.org/2000/svg">
<path d="M26.2 1.13334L25.1067 2.22667L23.84 0.946671C23.32 0.426671 22.48 0.426671 21.9467 0.946671L20.6667 2.22667L19.3867 0.946671C18.8667 0.426671 18.0134 0.426671 17.4934 0.946671L16.2267 2.22667L14.9467 0.946671C14.8233 0.82305 14.6768 0.724973 14.5155 0.658054C14.3542 0.591136 14.1813 0.55669 14.0067 0.55669C13.8321 0.55669 13.6591 0.591136 13.4978 0.658054C13.3365 0.724973 13.19 0.82305 13.0667 0.946671L11.7867 2.22667L10.5067 0.946671C9.98669 0.426671 9.14669 0.426671 8.61335 0.946671L7.33335 2.22667L6.05335 0.946671C5.53335 0.426671 4.68002 0.426671 4.16002 0.946671L2.89335 2.22667L1.80002 1.13334C1.38669 0.720004 0.666687 1.01334 0.666687 1.61334V21.3333C0.666687 22.8 1.86669 24 3.33335 24H24.6667C26.1334 24 27.3334 22.8 27.3334 21.3333V1.61334C27.3334 1.01334 26.6134 0.720004 26.2 1.13334ZM12.6667 21.3333H3.33335V13.3333H12.6667V21.3333ZM24.6667 21.3333H15.3334V18.6667H24.6667V21.3333ZM24.6667 16H15.3334V13.3333H24.6667V16ZM24.6667 10.6667H3.33335V6.66667H24.6667V10.6667Z" fill="white" fill-opacity="0.4"/>
</svg>
